<?xml version="1.0" standalone="no"?>
<!DOCTYPE svg PUBLIC "-//W3C//DTD SVG 20010904//EN"
 "http://www.w3.org/TR/2001/REC-SVG-20010904/DTD/svg10.dtd">
<svg version="1.0" xmlns="http://www.w3.org/2000/svg"
 width="1024.000000pt" height="1024.000000pt" viewBox="0 0 1024.000000 1024.000000"
 preserveAspectRatio="xMidYMid meet">
<metadata>
Created by potrace 1.11, written by Peter Selinger 2001-2013
</metadata>
<g transform="translate(0.000000,1024.000000) scale(0.100000,-0.100000)"
fill="#000000" stroke="none">
<path d="M4480 9555 c-7 -8 -25 -15 -41 -15 -21 0 -27 -4 -23 -15 9 -22 -23
-19 -43 5 -18 21 -53 27 -53 10 0 -5 -10 -10 -21 -10 -19 0 -20 -2 -8 -17 13
-15 12 -16 -6 -8 -11 4 -51 10 -90 12 -53 4 -75 1 -90 -11 -16 -13 -17 -15 -2
-10 9 3 17 1 17 -5 0 -12 -15 -14 -96 -11 -29 1 -55 -3 -59 -9 -3 -6 -18 -11
-33 -11 -15 0 -36 -7 -47 -16 -14 -10 -33 -13 -65 -9 -29 4 -40 3 -32 -3 11
-7 9 -10 -7 -15 -14 -3 -19 -10 -15 -21 6 -15 -4 -15 -98 -1 -32 5 -36 -2 -11
-20 13 -10 4 -13 -58 -20 -48 -5 -67 -10 -55 -14 13 -5 16 -10 8 -15 -6 -3 -9
-13 -6 -20 6 -16 -32 -46 -58 -46 -10 0 -18 -4 -18 -10 0 -5 -5 -10 -11 -10
-6 0 -34 -20 -61 -45 -29 -26 -67 -49 -91 -56 -56 -15 -96 -36 -129 -67 -32
-30 -37 -47 -9 -32 25 13 41 13 18 -1 -9 -6 -14 -15 -11 -21 4 -7 2 -8 -5 -4
-6 4 -14 1 -17 -7 -3 -8 -26 -23 -52 -32 -79 -29 -194 -105 -249 -164 -29 -30
-53 -57 -53 -59 0 -14 -77 -116 -118 -157 -28 -27 -49 -52 -46 -56 2 -4 -42
-56 -98 -115 -57 -59 -97 -104 -90 -100 31 18 -8 -34 -65 -89 -18 -17 -33 -36
-33 -41 0 -6 -13 -23 -30 -39 -17 -16 -30 -35 -30 -42 0 -7 -17 -32 -39 -56
-52 -58 -60 -75 -54 -127 4 -39 -1 -53 -32 -105 -62 -100 -76 -127 -70 -133 3
-3 -2 -16 -10 -29 -20 -29 -12 -30 15 0 21 21 22 21 18 2 -1 -11 -10 -25 -18
-32 -8 -6 -12 -15 -8 -19 4 -4 3 -13 -3 -21 -20 -23 -1 -14 36 18 l35 31 -36
-53 c-20 -30 -40 -56 -45 -57 -5 -2 -7 -7 -4 -12 6 -9 -12 -57 -31 -80 -18
-24 -27 -71 -12 -68 7 2 19 10 25 18 11 12 12 8 9 -24 -2 -21 -7 -41 -12 -45
-5 -3 -15 -22 -21 -41 -16 -42 -1 -65 22 -34 13 17 14 17 15 2 0 -9 -4 -20
-10 -23 -5 -3 -10 -13 -10 -21 0 -8 5 -12 10 -9 16 10 12 -5 -12 -43 -12 -20
-16 -32 -10 -28 7 4 19 21 28 38 14 28 17 29 26 14 8 -13 5 -22 -11 -37 -12
-11 -21 -32 -21 -49 0 -25 3 -28 24 -24 21 3 24 1 21 -16 -2 -11 -6 -24 -9
-28 -2 -4 -1 -14 4 -22 7 -12 10 -12 16 3 9 24 23 21 17 -3 -3 -12 -14 -20
-26 -20 -11 0 -17 -3 -14 -6 3 -4 2 -15 -4 -25 -8 -15 -6 -19 6 -19 17 0 17
-11 -4 -104 -13 -55 -9 -65 16 -45 15 13 16 12 9 -6 -28 -70 -28 -139 0 -100
12 16 14 15 20 -9 3 -15 4 -40 0 -56 -3 -16 -3 -36 0 -45 5 -12 10 -12 32 3
15 9 32 24 39 32 6 8 14 13 16 10 3 -3 -14 -28 -39 -55 -48 -55 -48 -54 -34
-75 8 -13 11 -12 24 5 11 15 15 16 15 5 0 -8 -6 -24 -14 -34 -12 -16 -12 -21
-2 -28 9 -6 9 -11 -1 -28 -15 -25 -15 -30 2 -30 16 0 13 -44 -4 -65 -19 -23 6
-19 42 6 22 16 32 19 37 10 6 -9 18 -9 49 2 23 8 40 11 37 7 -3 -4 -27 -16
-54 -26 -77 -27 -94 -44 -96 -98 -2 -25 -11 -59 -21 -74 -48 -72 -80 -223 -65
-305 10 -57 50 -171 57 -164 3 2 6 63 7 135 2 72 6 134 10 138 4 4 7 16 7 26
0 32 32 118 43 118 6 0 3 6 -6 13 -15 10 -16 16 -5 44 7 18 18 35 26 38 10 3
12 0 8 -10 -7 -18 5 -20 22 -3 7 7 12 8 12 3 0 -4 9 0 21 11 15 14 20 15 17 4
-2 -11 4 -14 22 -12 14 2 29 8 34 13 12 11 46 12 45 2 -3 -21 3 -23 23 -9 31
22 39 20 28 -9 -7 -19 -6 -26 7 -33 11 -6 12 -11 4 -16 -6 -4 -11 -16 -11 -28
0 -18 2 -19 17 -7 15 13 16 11 11 -13 l-5 -27 30 16 c28 14 30 14 22 -3 -15
-40 -15 -48 1 -26 21 28 38 29 31 1 -5 -17 -3 -18 10 -8 13 11 15 10 13 -6 -1
-11 -1 -24 0 -30 1 -5 1 -26 0 -45 -2 -30 0 -32 14 -21 17 14 68 23 61 10 -3
-4 -1 -10 5 -14 6 -3 10 3 10 16 0 20 1 21 25 5 15 -10 25 -12 25 -6 0 6 5 8
10 5 6 -3 10 1 10 11 0 13 3 14 15 4 12 -10 15 -9 16 4 3 36 5 40 18 44 10 3
12 -1 9 -16 -5 -16 -2 -20 14 -17 17 4 18 0 12 -43 -4 -26 -13 -67 -20 -91 -8
-29 -10 -51 -3 -68 12 -31 11 -36 -1 -28 -5 3 -10 -1 -10 -9 0 -8 4 -17 9 -20
11 -7 20 28 26 114 7 83 12 120 19 127 3 3 5 -3 4 -13 0 -11 4 -38 9 -60 6
-24 7 -48 2 -55 -5 -8 -9 -45 -8 -84 0 -68 0 -69 15 -42 8 15 12 32 9 38 -4 5
-2 15 3 22 14 18 21 68 9 60 -6 -4 -8 0 -4 11 4 10 7 23 7 29 0 7 5 6 11 -3 9
-12 10 -12 5 3 -3 10 -6 21 -6 23 0 3 -5 2 -11 -2 -8 -4 -9 1 -4 17 4 17 3 20
-3 10 -8 -11 -12 -10 -20 5 -8 14 -5 28 9 57 11 21 17 47 14 57 -4 12 3 34 19
57 27 39 35 69 15 57 -6 -3 -3 5 6 20 10 15 15 29 11 33 -3 3 0 13 7 22 10 14
10 14 -5 3 -9 -8 -22 -11 -27 -7 -6 3 -23 -2 -37 -12 -37 -24 -27 -4 23 50 23
25 39 47 36 51 -3 3 0 12 7 21 11 13 9 15 -11 15 -19 0 -21 2 -9 10 11 7 11
10 2 10 -7 0 -10 5 -7 10 3 6 -1 10 -9 10 -10 0 -13 6 -9 17 5 12 3 14 -8 8
-12 -8 -12 -6 0 8 10 12 17 14 26 7 9 -7 16 -5 26 7 12 15 12 16 -3 10 -15 -5
-16 -3 -6 21 7 15 15 32 20 38 8 11 1 24 -14 24 -5 0 -6 -4 -3 -10 3 -6 -1 -7
-10 -4 -14 6 -14 8 0 24 8 9 13 19 10 22 -3 3 1 11 10 18 18 15 20 44 3 35 -7
-4 -4 1 6 9 19 16 19 16 -2 16 -11 0 -26 -8 -31 -17 -9 -16 -10 -16 -11 3 0
12 7 25 16 28 9 3 12 11 8 18 -4 7 -4 10 0 6 8 -7 46 26 46 41 0 5 9 11 20 14
11 3 20 9 19 14 -4 24 3 41 17 39 9 0 19 5 21 12 3 6 -3 12 -12 12 -12 0 -15
6 -10 20 5 16 3 19 -12 13 -16 -6 -17 -5 -3 12 15 17 14 18 -20 1 -22 -11 -28
-12 -18 -3 10 8 14 18 10 22 -4 5 0 5 8 0 12 -6 13 -5 3 5 -9 10 -8 18 7 38
11 13 17 28 14 33 -3 5 6 14 20 20 14 7 27 18 30 26 3 8 1 11 -4 8 -20 -12
-31 7 -13 22 10 8 5 7 -14 -3 -18 -10 -33 -22 -33 -27 0 -4 -4 -5 -10 -2 -5 3
-10 3 -10 -2 0 -4 -15 -9 -33 -10 -26 -1 -28 0 -11 7 12 5 24 15 27 24 4 9 11
16 17 16 6 0 8 -6 4 -12 -4 -7 -3 -9 1 -5 5 4 10 23 10 42 1 19 8 41 15 50 7
8 9 15 5 15 -9 0 -28 -16 -76 -65 -16 -16 -29 -24 -29 -18 0 7 5 15 10 18 6 4
7 11 4 17 -4 6 -2 8 3 5 12 -7 26 7 37 38 6 17 4 16 -20 -5 -21 -19 -26 -21
-21 -7 4 11 3 16 -3 12 -6 -3 -10 -1 -10 5 0 6 6 13 14 16 8 3 19 20 25 37
l11 32 -20 -23 c-12 -14 -25 -21 -32 -16 -10 5 -10 4 -1 -6 9 -10 7 -17 -12
-32 -13 -10 -37 -46 -54 -81 -44 -91 -51 -113 -40 -124 11 -11 1 -45 -11 -38
-5 3 -12 0 -16 -6 -4 -8 -3 -9 4 -5 8 5 12 0 12 -13 0 -12 -4 -21 -10 -21 -5
0 -12 0 -15 0 -3 0 -19 -15 -36 -32 -17 -19 -26 -24 -20 -13 64 129 102 217
98 222 -6 5 -27 -39 -27 -56 0 -5 -7 -14 -15 -21 -14 -11 -14 -10 -6 14 14 36
7 33 -18 -8 -23 -37 -28 -61 -9 -50 7 4 8 3 4 -5 -4 -6 -11 -9 -16 -6 -5 3
-16 -10 -24 -30 -14 -33 -35 -52 -22 -20 8 21 -17 19 -37 -3 -18 -20 -23 -37
-8 -27 5 3 11 2 13 -2 2 -5 -17 -28 -41 -52 -35 -36 -42 -40 -36 -20 4 13 27
53 50 89 23 36 48 74 54 85 11 18 12 18 8 -8 -2 -15 0 -30 4 -33 9 -5 11 2 13
41 1 11 7 19 14 17 6 -1 13 2 13 8 1 5 2 14 3 18 0 5 18 35 39 68 20 32 37 68
37 80 0 12 7 27 15 34 9 7 13 15 11 18 -8 8 14 43 23 37 5 -2 28 20 51 51 24
30 49 53 55 50 7 -2 39 23 72 57 33 34 68 68 79 75 10 7 12 9 4 5 -8 -4 2 10
23 30 21 21 35 43 31 48 -3 6 3 13 14 16 23 6 36 29 25 46 -4 6 0 8 9 5 11 -5
14 0 12 18 -1 14 3 24 10 24 7 0 21 7 32 15 18 14 17 14 -11 4 l-30 -10 38 38
c20 21 37 44 37 50 0 6 7 14 16 17 8 3 12 11 8 17 -4 7 -3 9 4 5 15 -9 45 23
34 38 -5 7 1 19 15 33 21 20 23 20 33 5 5 -9 10 -12 10 -5 0 7 19 17 42 24 23
6 50 20 59 31 10 10 26 20 37 21 12 0 19 4 17 7 -2 4 12 13 31 22 19 9 37 12
40 7 3 -5 0 -9 -5 -9 -6 0 -11 -3 -11 -7 0 -5 11 -8 25 -8 27 0 31 5 14 22 -8
8 -6 14 9 22 10 6 22 7 26 4 3 -4 13 2 22 13 8 10 13 13 9 7 -3 -7 0 -13 7
-13 8 0 6 -5 -5 -11 -10 -6 -25 -8 -33 -5 -8 3 -14 1 -14 -4 0 -13 31 -18 57
-9 14 5 23 4 27 -4 3 -9 5 -9 5 0 1 7 8 10 16 7 8 -4 15 -1 15 6 0 7 6 6 15
-4 16 -15 28 -14 75 11 21 11 27 11 36 -2 10 -14 12 -14 18 0 3 8 10 15 16 15
6 0 8 -6 4 -12 -5 -8 0 -7 11 2 11 9 16 10 11 3 -8 -14 6 -18 18 -6 13 14 59
18 104 9 31 -6 46 7 20 17 -10 4 -9 6 1 6 8 1 20 -7 27 -16 13 -17 14 -17 8 0
-5 13 -2 16 10 11 9 -3 13 -11 10 -16 -8 -12 35 -1 53 14 7 6 19 8 27 5 7 -3
18 -1 24 5 8 8 16 8 27 -2 11 -9 15 -9 15 -1 0 12 31 11 40 -1 3 -3 19 -8 37
-11 24 -4 33 -1 36 11 4 15 5 15 6 0 1 -18 31 -26 31 -8 0 5 16 12 35 16 19 3
35 11 35 16 0 7 14 8 35 5 21 -3 33 -2 30 4 -4 5 1 9 9 9 8 0 18 -5 21 -10 5
-8 11 -8 20 0 10 8 13 7 11 -7 0 -10 7 -19 18 -21 10 -2 16 0 12 6 -3 5 3 12
14 15 20 5 50 -15 50 -34 0 -6 5 -7 10 -4 6 4 8 11 5 16 -4 5 6 9 22 9 18 0
24 -3 15 -8 -8 -5 -10 -16 -6 -27 7 -18 8 -18 14 0 8 22 46 27 61 8 9 -10 8
-13 -5 -13 -9 0 -16 -5 -16 -11 0 -6 9 -8 20 -4 26 8 25 -3 -2 -27 l-22 -18
25 2 c13 2 27 12 31 23 5 13 6 8 3 -12 -3 -22 0 -33 8 -33 8 0 9 -3 1 -8 -6
-4 -13 -15 -17 -24 -6 -16 2 -22 24 -20 10 1 31 -107 23 -119 -4 -8 -3 -9 4
-5 15 9 15 1 1 -26 -7 -13 -7 -18 -1 -14 6 3 13 2 17 -4 4 -6 10 -8 14 -5 10
6 9 -91 -1 -101 -5 -4 -8 -1 -8 6 0 7 -3 10 -6 7 -4 -4 -1 -13 5 -21 15 -18 7
-34 -23 -46 -15 -6 -16 -9 -5 -9 21 -1 51 -45 43 -65 -4 -11 0 -14 15 -11 15
3 21 -1 19 -10 -2 -7 2 -15 7 -16 15 -3 34 -33 28 -43 -4 -5 -12 -1 -20 10
-13 18 -14 18 -19 -4 -4 -12 -10 -20 -14 -17 -14 8 -40 -6 -40 -22 0 -8 -5
-11 -11 -7 -6 3 -15 0 -20 -7 -12 -19 -11 -79 1 -79 6 0 10 -7 10 -15 0 -11
-5 -12 -25 -5 -23 9 -25 8 -15 -10 6 -11 15 -20 20 -20 6 0 10 -4 10 -10 0 -5
-7 -6 -17 -3 -12 5 -14 3 -8 -7 5 -9 4 -11 -4 -6 -6 4 -9 12 -6 17 4 5 -4 13
-17 18 -13 6 -18 10 -12 10 7 1 14 13 17 28 5 27 5 27 -10 8 -15 -20 -15 -20
-10 3 5 23 0 27 -18 14 -15 -10 -18 -42 -4 -42 6 0 9 -6 6 -14 -3 -7 -1 -18 4
-23 5 -5 -9 -8 -34 -6 -23 1 -31 -1 -18 -4 18 -4 21 -7 10 -13 -7 -5 -11 -12
-7 -15 3 -3 14 2 24 12 17 17 18 17 11 0 -4 -10 -7 -23 -7 -29 0 -6 -11 -3
-24 5 -21 14 -25 14 -30 2 -3 -8 -2 -22 1 -32 4 -11 3 -14 -5 -9 -7 4 -22 -4
-36 -21 -18 -21 -27 -25 -37 -16 -11 9 -14 6 -15 -18 -1 -16 3 -29 7 -29 5 0
9 -5 9 -11 0 -5 -4 -8 -10 -4 -5 3 -8 -13 -7 -39 2 -40 4 -45 22 -40 19 6 19
5 2 -8 -16 -12 -17 -16 -4 -26 9 -7 12 -22 9 -39 -3 -18 -1 -24 7 -19 7 5 11
-4 11 -28 0 -19 5 -38 10 -41 6 -4 8 -10 5 -15 -3 -5 -1 -11 5 -15 5 -3 10 -1
10 4 0 6 5 11 11 11 5 0 8 -4 4 -9 -5 -10 24 -31 44 -31 5 0 12 8 14 18 4 15
5 15 6 0 0 -9 -3 -20 -9 -23 -5 -3 -10 -21 -11 -38 0 -27 -2 -29 -9 -12 -7 18
-8 18 -15 3 -8 -19 15 -48 37 -48 8 0 9 -3 3 -8 -14 -10 -15 -42 -2 -42 6 0 2
-6 -9 -14 -10 -8 -16 -18 -11 -22 4 -4 7 -2 7 5 0 7 4 10 8 7 5 -3 22 8 37 24
15 16 32 27 37 24 4 -3 8 1 8 9 0 9 -8 14 -17 12 -10 -1 -13 0 -7 2 16 6 13
63 -3 63 -7 0 -13 8 -12 18 0 10 3 12 6 5 2 -7 18 -13 34 -13 18 0 28 4 24 10
-3 6 -1 10 4 10 6 0 11 -12 11 -26 0 -14 -3 -23 -8 -20 -4 2 -16 -2 -27 -10
-10 -8 -13 -14 -7 -14 7 0 12 -12 12 -27 0 -22 2 -25 10 -13 5 8 10 11 10 5 0
-19 -15 -32 -33 -29 -9 1 -15 -2 -11 -7 3 -5 14 -9 24 -9 10 0 22 -5 26 -12 4
-6 3 -8 -3 -5 -9 6 -23 -12 -23 -29 0 -10 29 -3 33 9 3 7 6 7 6 1 1 -6 -8 -19
-19 -29 -19 -17 -20 -17 -20 1 0 16 -2 16 -10 4 -6 -10 -4 -17 7 -24 11 -6 18
-5 21 2 2 7 11 12 20 12 15 0 15 -2 2 -10 -13 -8 -12 -10 3 -10 14 0 17 -5 12
-20 -4 -11 -2 -20 4 -20 6 0 11 10 11 22 0 27 5 21 14 -15 3 -15 2 -26 -3 -25
-5 2 -8 0 -7 -3 0 -3 -6 -14 -14 -24 -14 -17 -14 -17 7 -6 19 10 22 9 17 -4
-4 -10 0 -15 10 -15 9 0 16 -5 16 -11 0 -5 -4 -8 -8 -5 -4 2 -8 -4 -8 -15 0
-14 5 -19 18 -16 20 6 25 -18 6 -27 -7 -4 -4 -5 8 -2 17 3 20 -1 16 -20 -2
-13 -9 -21 -15 -17 -6 3 -7 1 -3 -6 4 -6 12 -9 17 -6 8 6 13 -8 10 -27 0 -5 3
-8 7 -8 4 0 9 -17 10 -37 2 -21 9 -52 17 -68 7 -17 16 -70 19 -119 3 -48 9
-93 14 -100 4 -6 8 -32 8 -58 -1 -27 3 -48 8 -48 4 0 6 -6 3 -14 -3 -7 -1 -18
3 -22 5 -5 12 -34 15 -64 4 -30 10 -66 15 -80 10 -27 40 -144 40 -155 0 -3 -6
-3 -12 1 -10 6 -10 5 -1 -7 18 -23 39 -119 37 -174 -1 -27 4 -56 10 -64 8 -11
8 -13 -1 -8 -9 6 -11 -9 -7 -63 5 -58 3 -71 -10 -76 -17 -6 -20 -33 -10 -71 4
-13 11 -20 17 -16 6 3 7 1 3 -5 -4 -6 -12 -9 -19 -6 -9 3 -16 -12 -23 -43 -15
-68 -18 -77 -26 -83 -4 -3 -9 -17 -12 -32 -2 -14 -10 -36 -16 -48 -6 -12 -9
-28 -6 -35 3 -9 -7 -15 -33 -20 -21 -3 -44 -15 -52 -27 -8 -11 -24 -31 -36
-44 -13 -13 -23 -27 -23 -31 0 -5 -9 -14 -21 -21 -12 -8 -18 -9 -14 -3 3 6 1
11 -6 11 -6 0 -9 -8 -6 -20 3 -11 -1 -26 -8 -34 -8 -7 -11 -16 -8 -20 4 -3 -2
-6 -13 -6 -10 0 -15 -4 -9 -8 13 -10 16 -44 2 -35 -6 4 -8 -2 -5 -15 4 -12 2
-22 -3 -22 -5 0 -5 -10 1 -24 5 -13 6 -27 2 -30 -3 -4 -7 -16 -9 -27 -2 -11
-10 -27 -18 -35 -8 -9 -15 -25 -15 -36 0 -14 -5 -18 -16 -14 -12 4 -15 2 -10
-9 3 -8 1 -15 -4 -15 -6 0 -10 6 -10 14 0 11 -7 13 -29 6 -16 -4 -33 -5 -37
-2 -4 4 -4 1 0 -6 4 -7 12 -10 17 -7 5 4 9 1 9 -6 0 -7 -13 -10 -34 -7 -21 2
-32 0 -29 -6 4 -6 -1 -6 -13 -2 -10 4 -15 4 -11 0 4 -4 -1 -13 -11 -20 -15
-12 -13 -14 18 -15 19 -1 42 0 50 1 8 1 12 -1 9 -5 -4 -3 4 -17 17 -30 26 -26
31 -64 12 -83 -21 -21 -104 -15 -132 11 -34 30 -40 106 -8 108 9 1 1 5 -18 9
-19 5 -45 11 -58 14 -14 3 -25 0 -28 -9 -5 -13 -23 -13 -65 0 -14 5 -17 3 -13
-9 5 -12 2 -15 -9 -10 -9 3 -14 11 -11 18 3 8 -5 11 -29 8 -21 -2 -54 5 -84
18 -28 12 -57 21 -64 20 -45 -7 -51 -1 -47 45 2 25 0 46 -5 48 -4 1 -9 12 -10
24 -1 20 -3 21 -17 8 -9 -8 -21 -12 -26 -8 -5 5 -6 4 -2 -1 4 -5 -1 -21 -11
-35 -20 -28 -47 -128 -37 -138 3 -3 0 -13 -7 -21 -9 -13 -9 -14 1 -8 11 7 17
-10 13 -41 -1 -7 2 -13 7 -13 4 0 16 -20 26 -44 17 -41 20 -44 43 -35 14 5 30
6 36 2 6 -4 8 -1 5 8 -3 8 0 23 8 34 8 11 14 14 14 6 0 -7 6 -11 14 -8 8 3 31
-3 52 -13 20 -11 40 -17 45 -15 4 3 10 -3 12 -12 4 -14 5 -12 6 5 0 12 8 25
16 29 20 7 57 -26 50 -45 -4 -11 -2 -12 7 -4 19 16 93 -19 76 -36 -16 -16 -6
-15 28 3 24 12 31 13 39 2 6 -8 19 -19 30 -25 11 -6 14 -12 8 -12 -8 0 -13
-13 -13 -32 l1 -33 15 28 c16 29 44 37 44 12 0 -8 5 -15 10 -15 6 0 10 -5 10
-11 0 -5 -6 -7 -12 -3 -9 5 -9 2 1 -9 15 -19 26 -23 15 -6 -4 7 -1 10 7 7 8
-3 13 -15 11 -29 -2 -19 -1 -21 7 -9 9 12 11 10 11 -10 0 -14 7 -38 15 -54 8
-15 15 -37 15 -47 0 -23 37 -62 50 -54 6 4 13 -1 16 -9 3 -9 10 -14 14 -11 4
3 13 -2 20 -10 11 -13 10 -14 -4 -9 -12 5 -15 2 -10 -10 4 -11 13 -15 28 -11
18 5 19 4 6 -7 -8 -7 -17 -20 -18 -28 -5 -19 -10 -60 -11 -80 -1 -13 -3 -13
-12 0 -9 12 -10 12 -5 -3 3 -10 2 -26 -3 -35 -5 -10 -5 -26 0 -37 8 -18 8 -17
6 5 -1 14 3 25 8 25 6 0 16 4 23 9 18 11 21 5 10 -24 -7 -20 -11 -22 -18 -10
-7 11 -10 7 -10 -17 0 -18 0 -36 1 -40 0 -4 -8 -11 -18 -15 -12 -5 -7 -6 15
-4 24 3 32 0 32 -11 0 -12 3 -13 13 -4 8 6 17 8 20 4 4 -3 7 2 7 12 0 18 1 18
14 0 8 -11 12 -23 10 -27 -9 -13 7 -9 22 7 8 8 22 11 32 8 14 -6 13 -8 -8 -14
-16 -4 -19 -7 -7 -8 11 -1 17 -9 17 -27 0 -14 -4 -23 -9 -19 -5 3 -12 1 -15
-4 -3 -5 5 -12 19 -15 27 -7 36 -46 11 -46 -10 0 -12 -7 -9 -22 5 -23 5 -23
-11 -3 -16 19 -16 19 -5 -6 14 -35 40 -35 33 0 l-5 26 13 -23 c8 -12 16 -21
19 -20 2 2 0 -2 -6 -7 -17 -17 -35 -54 -36 -72 -1 -12 -4 -10 -9 7 -6 19 -8
20 -9 6 -1 -12 -6 -16 -17 -12 -12 5 -14 1 -9 -15 5 -15 4 -19 -4 -15 -10 7
-16 -6 -12 -27 1 -5 -6 -4 -15 1 -21 11 -54 -14 -54 -40 0 -10 -4 -18 -10 -18
-5 0 -10 -12 -10 -26 0 -14 4 -23 10 -19 6 3 10 -1 10 -10 0 -9 -4 -14 -9 -11
-5 3 -12 -5 -15 -19 -4 -14 -11 -25 -16 -25 -5 0 -7 -15 -4 -32 5 -30 4 -31
-9 -15 -21 25 -31 21 -13 -5 21 -29 20 -35 -4 -41 -11 -3 -20 -14 -20 -24 0
-12 -7 -19 -20 -19 -11 0 -20 3 -20 6 0 3 -18 5 -39 5 -48 0 -45 -7 8 -25 23
-7 41 -17 41 -22 0 -5 4 -7 9 -4 5 3 11 -3 14 -14 3 -11 2 -20 -3 -20 -4 0 -7
-13 -6 -30 1 -23 7 -32 29 -39 29 -11 35 -26 15 -35 -7 -3 -4 -4 8 -1 19 5 20
1 19 -42 0 -27 3 -54 9 -61 7 -9 6 -16 -3 -22 -11 -6 -11 -9 0 -13 11 -4 11
-6 1 -6 -10 -1 -9 -5 3 -17 9 -10 13 -23 10 -33 -18 -42 -16 -69 4 -76 11 -3
23 -15 26 -26 4 -11 11 -16 17 -13 8 5 9 1 5 -11 -7 -17 8 -45 23 -45 5 0 11
8 13 18 3 10 5 6 6 -11 1 -19 5 -26 13 -21 8 5 9 2 4 -11 -5 -14 -4 -15 6 -7
10 8 13 0 11 -39 -1 -27 1 -49 5 -49 23 -1 32 -18 23 -42 -6 -17 -6 -29 1 -36
7 -7 6 -20 -5 -41 -12 -24 -12 -32 -3 -40 7 -6 16 -8 20 -4 4 4 4 0 0 -10 -3
-9 -10 -17 -15 -17 -4 0 -11 -17 -14 -37 -4 -21 -12 -51 -19 -68 -7 -16 -19
-46 -26 -65 -6 -19 -16 -44 -21 -55 -22 -51 -29 -117 -19 -183 6 -37 15 -68
19 -70 4 -1 6 -14 3 -28 -3 -15 1 -29 7 -34 10 -5 9 -10 -2 -21 -8 -8 -12 -27
-10 -43 2 -17 -2 -33 -9 -38 -10 -8 -10 -11 0 -15 6 -2 10 -9 7 -13 -3 -5 4
-14 16 -20 11 -7 18 -14 15 -17 -3 -4 -1 -12 4 -18 11 -14 3 -48 -10 -40 -4 3
-10 -2 -14 -10 -3 -8 -1 -15 4 -15 6 0 10 -7 10 -15 0 -8 -6 -15 -13 -15 -18
0 -39 -38 -32 -61 4 -11 2 -19 -5 -19 -6 0 -8 -5 -5 -10 3 -6 -1 -10 -11 -10
-13 0 -14 -3 -5 -14 8 -10 9 -16 1 -21 -5 -3 -10 -15 -10 -25 0 -10 -10 -26
-22 -34 -12 -9 -18 -16 -12 -16 5 0 15 5 22 12 7 7 12 8 12 2 0 -6 -5 -15 -11
-21 -6 -6 -8 -17 -3 -24 5 -9 9 -8 15 7 7 18 8 18 8 -2 1 -17 -4 -22 -23 -20
-13 0 -22 4 -19 9 2 4 -1 7 -6 7 -6 0 -11 -7 -11 -15 0 -8 -7 -15 -15 -15 -8
0 -15 4 -15 9 0 5 -13 7 -30 5 -17 -3 -30 -1 -30 5 0 6 -7 11 -15 11 -8 0 -15
4 -15 9 0 5 -12 14 -27 19 l-28 10 30 3 c27 2 26 3 -10 9 l-40 7 35 2 c33 2
33 3 11 12 -15 6 -21 15 -17 24 3 10 -1 15 -13 15 -10 0 -21 -9 -24 -20 -4
-15 -14 -20 -39 -21 -18 -1 -37 -1 -41 0 -5 1 -6 -3 -3 -8 4 -5 -2 -12 -12
-15 -21 -7 -73 -61 -66 -69 2 -2 -21 -21 -53 -42 -65 -43 -108 -49 -238 -29
-59 8 -101 22 -159 53 -44 22 -85 41 -91 41 -6 0 -29 8 -51 19 -21 10 -59 26
-84 34 -226 76 -545 307 -688 497 -23 30 -62 82 -87 115 -69 89 -103 171 -149
350 -36 143 -40 173 -40 280 0 110 2 124 26 170 35 67 108 138 193 188 87 52
168 128 163 154 -5 25 -39 28 -117 7 -91 -24 -148 -54 -225 -119 -54 -46 -73
-70 -105 -138 -40 -81 -40 -83 -38 -187 1 -58 6 -111 10 -117 5 -7 6 -17 3
-22 -3 -5 -1 -22 4 -37 5 -16 11 -40 12 -54 2 -14 7 -31 11 -38 5 -6 5 -12 1
-12 -3 0 -2 -6 4 -13 6 -6 13 -30 17 -52 7 -37 87 -189 107 -201 4 -3 8 -18 8
-35 0 -16 4 -29 10 -29 5 0 16 -16 24 -35 16 -38 28 -54 69 -96 26 -26 27 -30
13 -45 -17 -16 -22 -39 -7 -30 5 3 14 -1 21 -9 7 -8 17 -12 23 -8 5 3 7 1 3
-5 -3 -5 0 -13 6 -15 10 -4 9 -8 -2 -17 -12 -9 -9 -11 14 -7 34 6 69 -19 46
-33 -10 -6 -10 -8 0 -12 7 -2 14 -23 16 -47 1 -24 9 -48 16 -52 7 -5 8 -9 3
-9 -6 0 -17 6 -24 13 -11 10 -11 8 -2 -10 6 -12 16 -24 23 -26 10 -4 10 -6 0
-6 -11 -1 -11 -3 0 -14 7 -7 21 -16 32 -20 12 -5 17 -14 13 -27 -5 -21 1 -24
41 -20 14 1 22 -4 22 -14 0 -9 6 -13 14 -10 17 7 46 -52 39 -80 -3 -12 -6 -31
-7 -44 -2 -12 -8 -28 -14 -34 -9 -9 -12 -6 -12 14 0 19 -6 27 -24 32 -14 3
-32 3 -40 0 -16 -6 -21 5 -16 35 1 8 -6 21 -15 28 -11 7 -15 18 -11 30 6 15 8
15 16 3 8 -13 10 -13 10 1 0 9 -9 19 -21 22 -12 3 -18 10 -15 15 3 5 -5 7 -18
5 -24 -5 -24 -6 -9 -40 8 -19 13 -37 11 -38 -5 -5 -32 19 -45 40 -6 11 -17 18
-25 16 -7 -2 -24 -4 -38 -5 -23 -1 -25 2 -22 33 3 30 1 33 -17 28 -11 -3 -19
-2 -18 2 3 11 -46 70 -54 65 -12 -7 -31 34 -23 49 5 8 2 7 -9 -2 -13 -10 -17
-10 -17 -1 0 10 -3 10 -14 1 -15 -13 -32 1 -22 18 9 14 -5 42 -17 34 -6 -4 -8
3 -4 19 4 14 1 33 -8 45 -8 11 -13 22 -11 24 2 2 -5 12 -14 22 -14 15 -18 15
-17 3 1 -8 -1 -15 -5 -15 -32 -3 -40 0 -34 15 3 8 2 13 -3 10 -9 -6 -45 67
-47 94 -1 8 -2 23 -3 32 0 10 -12 20 -26 24 -15 4 -28 16 -31 30 -3 13 -10 22
-14 19 -5 -3 -6 10 -3 29 3 19 1 36 -5 40 -6 4 -9 13 -5 21 3 9 -1 15 -11 15
-12 0 -16 10 -16 35 0 19 -4 35 -10 35 -10 0 -39 88 -42 133 -1 15 -5 27 -8
27 -6 0 -13 118 -13 206 -1 19 10 45 24 63 13 16 40 55 59 86 19 30 40 55 47
55 7 0 13 5 13 10 0 14 -5 13 -76 -21 -71 -35 -114 -78 -114 -115 0 -14 -8
-39 -17 -57 -23 -43 -27 -198 -7 -273 8 -30 14 -66 14 -80 0 -14 5 -34 11 -45
6 -11 11 -33 11 -50 1 -16 7 -34 15 -40 7 -6 13 -24 13 -39 0 -15 6 -33 14
-39 8 -7 18 -31 21 -53 7 -42 27 -73 39 -61 5 6 10 -21 7 -40 -2 -11 25 -37
38 -37 5 0 8 -9 6 -20 -2 -13 2 -20 11 -20 8 0 12 -5 9 -10 -4 -6 -1 -18 6
-27 8 -9 14 -23 14 -32 0 -8 15 -25 33 -36 19 -12 35 -31 38 -47 4 -16 10 -28
15 -28 5 0 9 -7 9 -15 0 -22 32 -55 53 -55 15 0 18 -5 13 -24 -6 -24 14 -56
35 -56 5 0 9 -6 9 -14 0 -8 7 -16 15 -20 8 -3 15 -16 16 -28 0 -22 1 -22 9 -3
8 19 9 19 9 -3 1 -12 8 -25 16 -28 8 -4 15 -15 15 -25 0 -10 5 -19 10 -19 6 0
10 5 10 10 0 6 5 10 11 10 5 0 8 -4 5 -8 -3 -5 5 -20 17 -33 12 -13 21 -27 19
-32 -1 -5 6 -6 17 -2 23 7 32 -4 24 -33 -7 -28 -29 -28 -36 -1 -3 12 -10 18
-16 14 -6 -3 -11 -2 -11 4 0 14 -45 61 -58 61 -14 0 -34 35 -25 44 3 3 -1 6
-10 6 -9 0 -17 6 -17 13 0 6 -14 21 -30 32 -16 11 -30 25 -30 31 0 7 -7 14
-15 18 -8 3 -15 10 -15 15 0 9 -19 33 -87 111 -18 21 -33 42 -33 48 0 6 -9 16
-19 22 -11 5 -25 27 -32 47 -6 21 -22 46 -35 56 -13 9 -26 27 -30 39 -4 12
-13 28 -20 36 -8 7 -14 22 -14 33 0 10 -4 19 -10 19 -5 0 -10 7 -10 15 0 8 -7
15 -15 15 -13 0 -13 -4 -4 -22 25 -48 29 -58 29 -76 0 -11 9 -27 20 -37 11
-10 25 -33 32 -51 6 -18 15 -31 20 -28 4 3 8 -2 8 -10 0 -9 5 -16 10 -16 7 0
9 -14 5 -37 -4 -22 -3 -33 2 -26 12 17 32 2 31 -22 -1 -13 -10 -21 -26 -21
-16 -2 -22 2 -18 12 3 8 1 24 -4 36 -5 13 -9 18 -9 11 -1 -7 -8 -10 -16 -7 -9
4 -15 1 -15 -7 0 -8 -6 -5 -15 7 -8 10 -15 29 -15 42 0 21 -20 52 -34 52 -3 0
-24 18 -47 40 -30 29 -40 43 -32 51 11 11 6 49 -7 49 -9 0 -60 87 -60 102 0 5
-11 24 -25 42 -14 18 -25 41 -25 52 0 15 -2 16 -9 5 -7 -11 -10 -8 -16 10 -10
30 -66 84 -85 83 -8 -1 -26 -2 -39 -2 -16 -2 -21 -7 -18 -16 4 -10 1 -13 -9
-9 -17 6 -18 -9 -2 -25 10 -10 10 -15 -2 -22 -8 -6 -21 -8 -27 -5 -7 2 -13 -2
-13 -10 0 -8 -5 -15 -12 -15 -9 0 -9 -3 0 -12 20 -20 14 -24 -24 -20 -20 3
-32 7 -28 11 16 11 34 50 34 72 0 15 4 19 16 15 20 -8 43 20 44 50 0 29 8 34
36 24 18 -7 22 -6 17 5 -3 8 -1 15 5 15 6 0 9 8 7 18 -1 9 4 28 12 41 9 13 17
42 18 65 4 57 15 128 22 141 3 5 0 4 -8 -2 -19 -18 -39 -16 -39 5 -1 15 -2 15
-15 -2 -8 -11 -15 -14 -15 -7 0 7 -4 9 -10 6 -16 -10 -12 -25 8 -25 16 -1 16
-1 -1 -11 -20 -12 -37 -4 -37 17 0 8 -4 14 -10 14 -5 0 -10 -4 -10 -10 0 -5
-6 -10 -14 -10 -7 0 -19 -7 -26 -15 -7 -8 -16 -12 -21 -9 -5 3 -9 -2 -9 -10 0
-10 -9 -16 -21 -16 -12 0 -23 -8 -26 -20 -3 -13 -14 -20 -29 -20 -13 0 -32 -8
-42 -18 -9 -9 -30 -18 -47 -19 -16 0 -31 -6 -33 -12 -2 -6 -8 -9 -13 -5 -5 3
-9 0 -9 -6 0 -23 -95 -86 -105 -70 -3 5 -20 1 -37 -10 -17 -10 -35 -17 -40
-14 -4 3 -8 0 -8 -6 0 -6 -4 -9 -9 -5 -5 3 -18 -5 -28 -17 -19 -23 -29 -28
-72 -33 -14 -1 -30 -10 -37 -19 -12 -16 -19 -19 -96 -30 -41 -6 -88 -26 -88
-36 0 -7 -58 -24 -73 -21 -4 1 -10 -6 -13 -14 -4 -8 -16 -15 -28 -15 -12 0
-30 -6 -41 -13 -11 -7 -51 -24 -90 -37 -38 -13 -81 -32 -94 -42 -13 -10 -30
-18 -37 -18 -8 0 -14 -4 -14 -8 0 -5 -19 -17 -42 -27 -24 -9 -51 -21 -60 -26
-10 -5 -30 -9 -44 -9 -16 0 -37 -11 -52 -27 -31 -34 -101 -62 -136 -56 -19 4
-26 1 -26 -10 0 -16 -20 -27 -50 -27 -9 0 -23 -7 -30 -15 -6 -8 -15 -14 -18
-13 -4 0 -14 0 -22 -1 -12 -1 -13 -3 -1 -10 26 -16 1 -31 -44 -26 -30 3 -44 1
-42 -7 1 -6 -18 -15 -42 -20 -25 -4 -48 -13 -52 -19 -4 -7 -23 -14 -42 -16
-18 -2 -85 -29 -148 -61 l-114 -57 -3 -458 -2 -457 1119 0 c615 0 1133 3 1150
6 21 5 28 10 23 18 -12 15 -22 57 -13 51 12 -7 29 38 26 68 -2 16 -9 34 -15
42 -8 10 -9 15 -2 15 6 0 14 -5 17 -10 4 -6 11 -8 16 -5 5 4 9 1 9 -4 0 -6 9
-20 21 -32 17 -17 20 -29 15 -70 -5 -43 -4 -48 11 -42 18 7 33 22 33 35 0 4
-8 5 -17 1 -17 -6 -17 -5 0 14 18 21 23 38 8 28 -12 -7 -36 34 -26 43 3 4 10
1 14 -6 6 -10 13 -6 25 13 17 26 17 27 -3 20 -14 -4 -21 -2 -21 7 0 8 -9 24
-19 35 -12 12 -18 29 -14 41 2 11 0 29 -6 40 -7 14 -8 23 -1 27 17 10 12 55
-6 55 -23 0 -47 -28 -39 -47 5 -15 7 -15 15 -3 6 9 10 10 10 3 0 -6 3 -20 6
-30 5 -15 4 -15 -5 -3 -10 14 -12 13 -15 -19 -2 -23 -26 -25 -26 -3 0 14 -6
19 -17 17 -10 -1 -12 0 -4 2 10 4 12 17 8 54 -5 42 -3 50 13 59 12 7 20 21 20
38 0 21 2 24 10 12 5 -8 7 -24 4 -35 -4 -15 -3 -16 4 -6 5 7 15 10 21 7 8 -5
8 0 1 18 -11 30 3 36 19 8 10 -16 10 -16 11 1 0 9 5 17 10 17 6 0 10 8 10 17
0 16 -1 16 -12 0 -9 -12 -17 -14 -28 -7 -12 7 -12 12 -2 22 6 6 12 25 12 40 0
16 6 28 13 28 9 0 8 3 -2 9 -8 5 -11 16 -6 30 8 25 18 27 39 6 8 -8 21 -15 29
-15 19 0 30 -27 14 -34 -9 -3 -8 -8 3 -15 10 -7 11 -11 3 -11 -7 0 -13 -4 -13
-10 0 -5 7 -10 15 -10 8 0 15 7 15 15 0 8 5 15 10 15 6 0 10 -7 10 -16 0 -8 4
-12 10 -9 5 3 10 1 10 -5 0 -7 8 -9 19 -5 25 7 40 -31 26 -66 -4 -11 1 -18 17
-23 l23 -6 -22 -19 c-23 -19 -32 -38 -13 -26 5 3 10 -1 10 -9 0 -9 -5 -15 -11
-14 -9 3 -39 -64 -37 -81 2 -22 -3 -41 -11 -37 -12 8 -22 -34 -14 -62 4 -16 1
-22 -11 -22 -15 0 -17 -5 -20 -40 -2 -23 -29 -60 -44 -60 -9 0 -12 -6 -8 -16
3 -8 2 -12 -4 -9 -6 4 -17 -1 -26 -9 -9 -9 -20 -14 -25 -11 -5 4 -9 1 -9 -4 0
-8 67 -11 203 -11 l204 0 11 25 c16 35 14 44 -3 21 -15 -20 -20 -10 -9 18 9
24 34 19 35 -6 1 -21 2 -21 6 -3 3 11 10 23 17 28 8 5 6 11 -6 21 -13 10 -15
15 -6 24 7 7 18 12 26 12 9 0 11 7 7 20 -7 24 1 26 21 6 8 -9 10 -17 4 -21 -5
-3 -14 -24 -21 -47 -6 -23 -17 -48 -25 -56 -8 -8 -13 -19 -11 -26 3 -8 959
-12 3715 -14 l3712 -2 0 459 0 459 -37 23 c-21 12 -47 30 -58 40 -11 9 -36 25
-55 36 -19 10 -66 39 -105 65 -198 129 -880 478 -1130 578 -66 26 -192 71
-280 100 -88 28 -173 58 -190 65 -16 7 -79 34 -140 60 -103 43 -144 64 -286
144 -31 17 -81 40 -110 50 -106 36 -315 121 -394 161 -44 21 -118 55 -164 75
-47 19 -123 58 -169 86 -46 27 -107 59 -135 70 -29 11 -72 40 -98 64 -49 46
-123 75 -224 89 -32 5 -71 21 -110 46 -33 22 -94 55 -136 74 l-76 35 -16 103
c-15 94 -26 188 -42 338 -3 30 -9 127 -15 215 l-9 159 53 121 c56 126 103 253
129 345 45 159 82 453 90 716 2 72 7 136 11 142 4 7 30 11 59 11 57 -2 110 20
165 66 37 31 162 237 199 327 35 88 49 136 73 263 12 61 30 141 41 180 27 98
24 179 -11 319 -35 138 -34 126 -16 126 8 0 16 7 20 15 3 8 0 15 -6 15 -6 0
-8 3 -5 7 4 3 0 17 -8 29 l-15 23 34 -14 c33 -14 34 -14 40 11 4 14 3 31 -2
37 -5 7 -28 57 -52 111 l-42 100 22 16 c18 14 20 20 12 37 -31 56 -32 136 -7
283 4 19 8 53 9 75 1 22 7 49 13 60 5 11 16 41 22 66 11 40 16 46 34 41 16 -4
19 -2 14 12 -16 41 -17 63 -6 91 7 17 14 39 16 50 2 10 9 22 15 26 18 12 18
56 -2 113 -14 42 -16 63 -9 95 6 27 6 48 -1 61 -5 10 -10 29 -10 42 0 13 -12
40 -26 61 -14 21 -27 46 -29 57 -2 10 -11 30 -20 43 -9 14 -18 44 -20 66 -2
22 -11 51 -19 63 -9 12 -16 34 -16 48 0 30 -29 86 -87 168 -23 33 -39 62 -36
66 4 3 -1 6 -11 6 -9 0 -21 12 -27 27 -10 28 -46 69 -111 130 -20 20 -49 60
-64 90 -14 30 -41 72 -58 92 -17 20 -24 30 -14 23 9 -7 19 -9 22 -4 6 11 -31
45 -99 92 -64 44 -93 69 -180 155 -38 39 -83 78 -98 88 -15 10 -25 22 -22 27
6 9 -40 60 -54 60 -4 0 -13 12 -20 26 -6 15 -15 24 -18 20 -8 -7 -34 14 -29
23 3 4 -9 16 -25 26 -16 11 -29 25 -29 31 0 7 -9 14 -21 17 -12 3 -18 10 -14
16 4 7 -5 11 -24 11 -21 0 -31 5 -31 15 0 9 -9 15 -25 15 -28 0 -137 39 -146
52 -3 5 -13 6 -22 2 -10 -3 -17 -1 -17 5 0 17 -48 37 -135 56 -44 10 -84 22
-90 27 -5 4 -17 8 -27 8 -10 0 -21 6 -24 14 -3 8 -25 17 -50 21 -28 4 -44 11
-44 21 0 8 -7 14 -15 14 -29 0 -94 35 -106 56 -12 24 -72 39 -114 28 -14 -3
-25 -2 -25 2 0 5 -10 10 -22 11 -58 5 -91 17 -95 34 -6 21 -29 26 -35 8 -2 -6
-26 -11 -56 -11 -28 0 -50 -3 -47 -7 2 -4 -5 -15 -15 -24 -13 -11 -20 -12 -24
-4 -3 9 -8 8 -15 -3 -9 -13 -14 -13 -41 2 -16 9 -30 12 -30 7 0 -6 -5 -9 -11
-7 -6 2 -10 8 -9 13 2 12 -28 23 -67 24 -21 1 -38 9 -51 26 -20 25 -42 33 -42
16 0 -17 -33 -21 -50 -6 -15 14 -18 14 -30 0z m-1115 -1415 c-3 -5 -1 -10 5
-10 7 0 8 -6 0 -19 -17 -33 -11 -34 16 -1 30 35 42 34 23 -2 -10 -20 -10 -22
2 -13 8 6 7 3 -3 -7 -10 -9 -18 -22 -19 -30 0 -10 -2 -10 -6 0 -10 26 -31 10
-43 -35 -12 -40 -15 -43 -21 -25 -5 12 -11 22 -14 22 -4 0 -4 -4 0 -9 3 -5 1
-12 -4 -15 -15 -9 -25 14 -12 27 15 15 14 24 -5 31 -8 3 -12 2 -9 -4 3 -6 1
-10 -5 -10 -6 0 -9 -4 -5 -9 3 -5 1 -12 -4 -15 -5 -4 -12 -2 -15 3 -4 5 -1 13
5 16 5 4 8 14 5 22 -3 8 -2 12 2 9 12 -7 63 39 54 49 -4 4 6 5 21 3 20 -4 27
-2 23 7 -2 7 -2 16 1 19 10 10 15 7 8 -4z m-344 -56 c-5 -16 -10 -21 -10 -12
-1 18 10 51 15 45 2 -1 -1 -16 -5 -33z m133 1 c-9 -14 -19 -23 -22 -20 -5 4
26 45 35 45 2 0 -4 -11 -13 -25z m306 22 c0 -2 -12 -14 -27 -28 l-28 -24 24
28 c23 25 31 32 31 24z m-660 -64 c-11 -17 -11 -17 -6 0 3 10 6 24 7 30 0 9 2
9 5 0 3 -7 0 -20 -6 -30z m263 22 c-3 -9 -8 -14 -10 -11 -3 3 -2 9 2 15 9 16
15 13 8 -4z m127 -22 c0 -10 -5 -25 -10 -33 -7 -11 -9 -6 -7 17 2 34 17 47 17
16z m-140 -27 c0 -2 -8 -10 -17 -17 -16 -13 -17 -12 -4 4 13 16 21 21 21 13z
m316 -24 c-17 -16 -18 -16 -5 5 7 12 15 20 18 17 3 -2 -3 -12 -13 -22z m-566
-24 c0 -5 -4 -8 -10 -8 -5 0 -10 10 -10 23 0 18 2 19 10 7 5 -8 10 -18 10 -22z
m464 24 c3 -5 -1 -9 -9 -9 -8 0 -15 4 -15 9 0 4 4 8 9 8 6 0 12 -4 15 -8z
m-52 -24 c-7 -7 -12 -8 -12 -2 0 14 12 26 19 19 2 -3 -1 -11 -7 -17z m-82 2
c0 -5 -5 -10 -11 -10 -5 0 -7 5 -4 10 3 6 8 10 11 10 2 0 4 -4 4 -10z m955 -8
c-3 -3 -11 0 -18 7 -9 10 -8 11 6 5 10 -3 15 -9 12 -12z m-1100 -11 c-3 -6
-11 -11 -17 -11 -6 0 -6 6 2 15 14 17 26 13 15 -4z m130 -9 c-3 -3 -11 0 -18
7 -9 10 -8 11 6 5 10 -3 15 -9 12 -12z m-191 -55 c-22 -24 -42 -42 -46 -40 -8
4 64 83 76 83 5 0 -9 -19 -30 -43z m-144 -67 c-17 -52 -30 -102 -30 -111 0 -9
-7 -22 -15 -29 -17 -14 -21 0 -4 17 6 6 12 35 14 64 2 52 21 139 30 139 3 0 2
-15 0 -32 -5 -29 -3 -27 11 10 28 75 24 40 -6 -58z m260 40 c-6 -11 -13 -20
-16 -20 -2 0 0 9 6 20 6 11 13 20 16 20 2 0 0 -9 -6 -20z m-209 -23 c-10 -9
-11 -8 -5 6 3 10 9 15 12 12 3 -3 0 -11 -7 -18z m30 -25 c-5 -10 -18 -25 -27
-33 -16 -12 -17 -12 -9 1 10 18 37 50 42 50 2 0 -1 -8 -6 -18z m129 -15 c0 -2
-8 -11 -18 -20 -15 -14 -19 -15 -19 -2 0 8 4 12 8 9 4 -2 10 0 14 6 6 10 15
14 15 7z m-103 -92 c-1 -22 -5 -31 -10 -26 -9 9 -2 61 7 61 2 0 4 -16 3 -35z
m-31 -35 c8 0 14 -10 14 -25 0 -14 -5 -25 -11 -25 -6 0 -8 9 -4 20 3 11 2 20
-3 20 -12 0 -26 -47 -23 -76 1 -12 -5 -28 -13 -37 -9 -9 -16 -23 -16 -31 0 -9
-4 -16 -9 -16 -5 0 -7 10 -5 23 4 20 4 21 -5 2 -12 -24 -14 -72 -3 -78 4 -2 1
-2 -5 -1 -8 2 -13 -7 -14 -24 -1 -25 -2 -25 -9 6 -5 21 -3 49 5 77 8 24 11 45
8 48 -2 3 5 15 16 26 12 12 21 32 21 45 0 13 8 38 18 55 15 27 17 28 20 11 2
-11 10 -20 18 -20z m2204 31 c0 -5 -3 -16 -6 -25 -6 -16 -24 -12 -24 5 0 6 5
7 12 3 8 -5 9 -2 5 9 -3 10 -2 17 3 17 6 0 10 -4 10 -9z m-2820 -35 c0 -2 -8
-10 -17 -17 -16 -13 -17 -12 -4 4 13 16 21 21 21 13z m667 -33 c1 -34 1 -35
-8 -13 -7 19 -8 15 -4 -18 4 -29 2 -41 -5 -37 -7 4 -9 -3 -5 -22 3 -15 2 -21
-2 -13 -4 10 -13 -3 -25 -40 -15 -48 -17 -50 -13 -17 2 25 0 35 -7 31 -8 -5
-9 0 -4 17 4 13 10 36 13 52 3 15 9 27 13 27 5 0 12 10 16 23 5 19 23 47 28
47 1 0 2 -17 3 -37z m-757 -82 c-28 -45 -60 -68 -60 -42 0 10 83 101 88 96 2
-1 -11 -26 -28 -54z m313 14 c-3 -9 -8 -14 -10 -11 -3 3 -2 9 2 15 9 16 15 13
8 -4z m185 -95 c-40 -60 -74 -107 -77 -105 -2 3 12 29 32 60 21 30 37 59 37
64 0 5 4 11 8 13 4 2 18 20 31 41 12 20 27 37 32 37 4 0 -24 -49 -63 -110z
m93 69 c-5 -13 -10 -19 -10 -12 -1 15 10 45 15 40 3 -2 0 -15 -5 -28z m400
-25 c-11 -15 -21 -24 -21 -20 0 10 34 55 39 51 2 -2 -6 -16 -18 -31z m-520 -7
c-10 -9 -11 -8 -5 6 3 10 9 15 12 12 3 -3 0 -11 -7 -18z m102 -12 c-3 -9 -8
-14 -10 -11 -3 3 -2 9 2 15 9 16 15 13 8 -4z m467 11 c0 -3 -4 -8 -10 -11 -5
-3 -10 -1 -10 4 0 6 5 11 10 11 6 0 10 -2 10 -4z m1868 -35 c-14 -22 -34 -30
-24 -8 3 6 9 20 12 30 4 12 10 15 16 9 6 -6 5 -17 -4 -31z m-2357 -34 c-6 -14
-18 -35 -28 -45 -10 -10 -23 -27 -29 -38 -7 -10 -14 -16 -18 -13 -3 3 5 21 19
41 13 20 21 39 17 43 -4 3 0 5 8 3 8 -1 16 4 16 12 1 8 2 22 3 30 1 10 4 11
11 4 7 -7 8 -19 1 -37z m474 28 c-11 -8 -24 -18 -30 -23 -23 -19 -38 -25 -30
-13 7 12 65 51 75 51 3 -1 -4 -7 -15 -15z m-76 -18 c-2 -1 -13 -9 -24 -17 -19
-14 -19 -14 -6 3 7 9 18 17 24 17 6 0 8 -1 6 -3z m-366 -28 c-8 -8 -13 -7 -18
2 -5 8 -4 10 3 5 7 -4 12 -2 12 5 0 7 3 9 7 6 4 -4 2 -12 -4 -18z m-190 -16
c-8 -23 -33 -60 -33 -50 0 11 29 67 35 67 2 0 2 -8 -2 -17z m567 2 c0 -1 -6
-7 -13 -13 -10 -8 -13 -6 -13 7 0 11 6 17 13 14 7 -3 13 -6 13 -8z m-479 -18
c-10 -9 -11 -8 -5 6 3 10 9 15 12 12 3 -3 0 -11 -7 -18z m413 -2 c-4 -8 -10
-12 -15 -9 -11 6 -2 24 11 24 5 0 7 -7 4 -15z m-914 -14 c0 -14 -49 -65 -56
-59 -3 3 8 19 23 36 33 35 33 35 33 23z m874 -26 c-4 -8 -10 -12 -15 -9 -11 6
-2 24 11 24 5 0 7 -7 4 -15z m-737 -27 c-3 -7 -5 -2 -5 12 0 14 2 19 5 13 2
-7 2 -19 0 -25z m400 0 c-3 -8 -6 -5 -6 6 -1 11 2 17 5 13 3 -3 4 -12 1 -19z
m-510 -3 c0 -8 -4 -12 -8 -9 -8 4 -41 -39 -52 -66 -4 -13 -6 -12 -6 1 -1 20
24 71 31 64 3 -3 11 1 18 10 15 19 17 19 17 0z m463 -13 c-4 -16 -15 -42 -24
-58 l-16 -29 3 36 c5 39 23 79 37 79 5 0 5 -12 0 -28z m344 3 c-9 -14 -18 -25
-20 -25 -2 0 2 11 8 25 6 14 15 25 20 25 5 0 1 -11 -8 -25z m-749 -5 c-10 -11
-22 -20 -28 -20 -5 0 1 9 14 20 31 25 37 25 14 0z m515 -9 c-5 -11 -15 -23
-21 -27 -6 -3 -3 5 6 20 20 30 30 35 15 7z m187 -12 c-9 -6 -15 -14 -13 -18 3
-4 -1 -8 -9 -8 -13 0 -12 4 2 19 9 10 21 18 27 18 6 0 3 -5 -7 -11z m2130 -14
c-4 -8 -11 -15 -17 -15 -7 0 -7 6 0 21 13 23 26 19 17 -6z m-2894 -5 c-3 -11
-7 -20 -9 -20 -2 0 -4 9 -4 20 0 11 4 20 9 20 5 0 7 -9 4 -20z m654 -24 c-20
-26 -23 -35 -13 -39 9 -4 19 5 26 23 7 16 19 35 28 42 9 7 4 -7 -11 -32 -15
-25 -32 -44 -38 -42 -6 1 -9 -3 -7 -10 7 -21 -18 -71 -37 -74 -12 -2 -15 2
-10 14 4 9 8 22 8 29 0 7 4 10 8 7 14 -8 21 37 8 52 -10 12 -9 18 6 32 18 16
18 16 6 -1 -8 -9 -11 -20 -8 -23 3 -3 16 10 29 29 12 20 25 34 27 32 2 -3 -8
-20 -22 -39z m-137 24 c0 -5 -5 -10 -11 -10 -5 0 -7 5 -4 10 3 6 8 10 11 10 2
0 4 -4 4 -10z m-19 -47 c-8 -15 -10 -15 -11 -2 0 17 10 32 18 25 2 -3 -1 -13
-7 -23z m212 -3 c-9 -16 -21 -30 -26 -30 -9 0 -1 17 21 43 23 26 25 21 5 -13z
m37 -10 c-6 -11 -13 -20 -16 -20 -2 0 0 9 6 20 6 11 13 20 16 20 2 0 0 -9 -6
-20z m-420 -64 c0 -3 -4 -8 -10 -11 -5 -3 -10 -1 -10 4 0 6 5 11 10 11 6 0 10
-2 10 -4z m221 -29 c-10 -9 -11 -8 -5 6 3 10 9 15 12 12 3 -3 0 -11 -7 -18z
m-99 -19 c-8 -8 -9 -4 -5 13 4 13 8 18 11 10 2 -7 -1 -18 -6 -23z m62 23 c3
-4 -6 -19 -21 -32 l-26 -24 19 33 c20 35 21 36 28 23z m2336 -11 c0 -5 -2 -10
-4 -10 -3 0 -8 5 -11 10 -3 6 -1 10 4 10 6 0 11 -4 11 -10z m-2062 -35 c0 -13
-6 -29 -13 -35 -8 -7 -12 -5 -12 5 0 8 4 12 9 9 4 -3 8 -1 8 5 0 5 -5 13 -11
17 -8 4 -7 9 2 15 8 5 15 9 15 9 1 0 2 -11 2 -25z m-583 -57 c-49 -52 -65 -65
-90 -79 -11 -6 12 19 50 55 80 75 97 85 40 24z m217 -21 c-26 -34 -55 -73 -65
-87 l-18 -25 12 25 c15 32 102 149 111 150 4 0 -14 -28 -40 -63z m430 41 c-7
-7 -12 -8 -12 -2 0 14 12 26 19 19 2 -3 -1 -11 -7 -17z m-97 -18 c3 -6 -1 -7
-9 -4 -18 7 -21 14 -7 14 6 0 13 -4 16 -10z m75 -15 c0 -8 -4 -15 -10 -15 -5
0 -7 7 -4 15 4 8 8 15 10 15 2 0 4 -7 4 -15z m-820 -24 c-6 -12 -15 -21 -21
-21 -5 0 -2 11 8 24 21 28 29 27 13 -3z m90 20 c0 -13 -29 -41 -42 -41 -5 0 0
11 13 25 27 28 29 29 29 16z m623 -8 c-5 -12 -3 -14 8 -8 12 8 12 6 0 -8 -17
-22 -19 -21 -16 6 3 25 3 27 10 27 2 0 1 -7 -2 -17z m2445 -41 c2 -7 -2 -10
-12 -6 -9 3 -16 11 -16 16 0 13 23 5 28 -10z m-2358 -2 c0 -5 -5 -10 -11 -10
-5 0 -7 5 -4 10 3 6 8 10 11 10 2 0 4 -4 4 -10z m-810 -10 c0 -5 -5 -10 -11
-10 -5 0 -7 5 -4 10 3 6 8 10 11 10 2 0 4 -4 4 -10z m3074 -31 c-4 -8 1 -9 16
-4 15 5 20 4 16 -4 -4 -6 -2 -11 3 -11 6 0 11 5 11 10 0 6 5 10 11 10 6 0 9
-9 6 -20 -3 -13 0 -20 10 -20 8 0 13 6 10 13 -2 6 3 17 12 24 25 19 36 15 18
-5 -10 -10 -14 -22 -10 -26 4 -4 1 -11 -7 -16 -12 -8 -10 -10 7 -10 14 0 21 5
18 13 -3 6 -1 19 4 27 8 12 13 12 29 -4 16 -13 21 -14 26 -4 5 10 7 10 12 0 3
-6 9 -10 14 -7 4 3 13 -2 19 -9 8 -10 9 -16 1 -21 -5 -3 -10 -1 -10 6 0 7 -3
9 -7 5 -4 -4 3 -15 16 -25 18 -14 22 -23 16 -37 -4 -11 -9 -26 -9 -34 -1 -8
-7 -14 -14 -12 -8 1 -11 -2 -7 -8 11 -18 -10 -10 -28 11 -20 23 -40 21 -45 -6
-3 -15 1 -17 22 -11 26 6 37 -8 14 -17 -7 -3 0 -6 15 -6 l28 -1 -24 -22 c-12
-13 -24 -34 -25 -48 0 -14 -6 -26 -12 -28 -5 -2 -10 -11 -11 -20 0 -14 -2 -13
-9 3 -8 19 -8 19 -18 -5 -6 -14 -11 -18 -12 -10 0 9 -3 11 -8 5 -4 -6 -24 -16
-44 -22 -30 -9 -38 -8 -42 4 -4 8 -4 19 -1 23 3 5 1 11 -5 15 -5 3 -6 20 -3
38 6 29 5 31 -10 18 -9 -7 -14 -17 -11 -22 3 -5 -2 -6 -12 -2 -14 5 -15 7 -1
15 9 5 14 15 11 23 -4 8 -1 15 5 15 7 0 5 9 -5 25 -12 19 -13 25 -3 25 10 0
10 3 2 11 -9 9 -8 19 3 40 13 26 13 28 -3 22 -11 -4 -14 -3 -9 5 4 7 2 12 -3
12 -6 0 -11 12 -11 26 0 14 4 23 10 19 5 -3 6 -13 3 -22 -4 -10 -2 -14 4 -10
6 4 14 1 16 -5 3 -7 6 2 6 20 1 17 -4 32 -10 32 -6 0 -8 9 -4 21 5 15 4 19 -4
15 -12 -8 -15 6 -5 17 10 10 36 -22 28 -34z m-2866 2 c-13 -15 -25 -27 -27
-25 -4 4 39 54 47 54 2 0 -7 -13 -20 -29z m303 6 c-10 -9 -11 -8 -5 6 3 10 9
15 12 12 3 -3 0 -11 -7 -18z m-498 -42 c-3 -9 -8 -14 -10 -11 -3 3 -2 9 2 15
9 16 15 13 8 -4z m2657 -30 c-7 -9 -15 -13 -17 -11 -7 7 7 26 19 26 6 0 6 -6
-2 -15z m-2243 -43 c0 -10 -7 -19 -13 -19 -9 0 -10 5 -3 19 5 10 12 18 14 18
2 0 3 -8 2 -18z m351 -29 c-9 -10 -13 -24 -11 -30 3 -7 0 -14 -6 -14 -21 -3
-26 -4 -38 -12 -8 -5 -13 -4 -13 2 0 6 5 12 10 12 6 1 15 2 20 3 6 0 9 4 8 7
-3 7 32 49 40 49 3 0 -2 -8 -10 -17z m-377 -21 c-5 -10 -21 -29 -34 -43 -14
-14 -29 -37 -32 -52 -9 -34 -21 -35 -20 -1 1 15 18 44 41 70 42 45 62 57 45
26z m2839 -2 c0 -5 -4 -10 -10 -10 -5 0 -10 5 -10 10 0 6 5 10 10 10 6 0 10
-4 10 -10z m-3055 -36 c-10 -7 -22 -11 -28 -7 -6 3 -3 11 8 19 10 7 22 11 28
7 6 -3 3 -11 -8 -19z m-175 -5 c0 -5 -4 -9 -10 -9 -5 0 -10 7 -10 16 0 8 5 12
10 9 6 -3 10 -10 10 -16z m120 -33 c0 -3 -4 -8 -10 -11 -5 -3 -10 -1 -10 4 0
6 5 11 10 11 6 0 10 -2 10 -4z m315 -42 c-8 -16 -15 -23 -15 -16 0 17 20 55
26 49 2 -2 -2 -17 -11 -33z m87 -26 c-7 -7 -12 -8 -12 -2 0 14 12 26 19 19 2
-3 -1 -11 -7 -17z m2535 -30 c-3 -8 -6 -5 -6 6 -1 11 2 17 5 13 3 -3 4 -12 1
-19z m-2821 -29 c15 -30 15 -30 -5 -19 -12 6 -21 15 -21 20 0 4 -3 16 -7 26
-11 28 15 7 33 -27z m325 14 c-12 -20 -14 -14 -5 12 4 9 9 14 11 11 3 -2 0
-13 -6 -23z m2209 13 c0 -3 -4 -8 -10 -11 -5 -3 -10 -1 -10 4 0 6 5 11 10 11
6 0 10 -2 10 -4z m100 -4 c0 -4 -9 -8 -20 -9 -11 -1 -18 2 -15 8 7 11 35 12
35 1z m-2420 -36 c0 -3 -4 -8 -10 -11 -5 -3 -10 -1 -10 4 0 6 5 11 10 11 6 0
10 -2 10 -4z m-115 -46 c3 -6 -1 -7 -9 -4 -11 4 -16 0 -16 -10 0 -9 -4 -16
-10 -16 -14 0 -12 27 3 33 19 8 25 8 32 -3z m-161 -25 c-9 -14 -19 -23 -22
-20 -5 4 26 45 35 45 2 0 -4 -11 -13 -25z m187 -29 c-34 -35 -59 -52 -69 -49
-10 5 -6 11 18 23 21 11 29 20 21 24 -6 4 -15 4 -21 1 -17 -10 -11 12 7 26 9
8 14 9 10 3 -4 -7 0 -17 7 -23 11 -10 16 -8 21 9 3 11 10 18 15 15 4 -3 13 2
20 10 7 8 15 15 18 15 4 0 -18 -24 -47 -54z m-241 -26 c-35 -24 -54 -31 -30
-11 14 11 30 21 35 21 6 0 3 -5 -5 -10z m130 -14 c0 -2 -7 -9 -15 -16 -13 -11
-14 -10 -9 4 5 14 24 23 24 12z m154 -81 c-23 -40 -84 -111 -84 -99 0 13 30
61 49 78 12 11 21 24 21 29 0 8 28 36 38 37 2 0 -9 -20 -24 -45z m-214 -30
c-7 -9 -15 -13 -19 -10 -3 3 1 10 9 15 21 14 24 12 10 -5z m-63 -57 c-3 -8 -6
-5 -6 6 -1 11 2 17 5 13 3 -3 4 -12 1 -19z m324 -16 c-5 -9 -19 -26 -32 -37
-17 -15 -15 -10 7 17 32 41 40 48 25 20z m309 -20 c0 -4 -10 -13 -22 -21 -23
-14 -23 -14 -4 8 20 22 26 25 26 13z m-309 -106 c5 3 9 0 9 -6 0 -7 -7 -9 -16
-6 -9 3 -18 6 -20 6 -3 0 -2 5 2 12 6 9 9 9 12 0 2 -7 8 -10 13 -6z m112 -81
c-3 -9 -8 -14 -10 -11 -3 3 -2 9 2 15 9 16 15 13 8 -4z m-52 -38 c-10 -9 -11
-8 -5 6 3 10 9 15 12 12 3 -3 0 -11 -7 -18z m2580 -1584 c13 -16 12 -17 -3 -4
-10 7 -18 15 -18 17 0 8 8 3 21 -13z m-1 -37 c0 -2 -7 -6 -15 -10 -8 -3 -15
-1 -15 4 0 6 7 10 15 10 8 0 15 -2 15 -4z m-250 -108 c0 -19 -16 -5 -17 14 -2
18 0 20 7 8 5 -8 10 -18 10 -22z m5 -36 c-3 -3 -11 0 -18 7 -9 10 -8 11 6 5
10 -3 15 -9 12 -12z m-332 -119 c18 -9 26 -18 19 -20 -6 -3 -10 -8 -7 -12 2
-5 -11 -26 -29 -47 -28 -32 -36 -36 -48 -26 -22 18 -51 89 -45 106 8 21 69 21
110 -1z m322 0 c76 -19 85 -26 85 -63 0 -21 2 -22 11 -10 9 12 10 11 4 -5 -4
-11 -8 -24 -9 -30 -5 -27 -20 -33 -80 -34 -89 0 -108 16 -114 98 -5 72 -6 71
103 44z m219 -32 c10 -11 16 -28 15 -38 -2 -10 0 -24 4 -30 5 -8 3 -13 -3 -13
-6 0 -8 -4 -5 -10 3 -6 -4 -10 -18 -10 -27 0 -47 34 -47 79 0 45 24 55 54 22z
m-144 -191 c0 -5 -4 -10 -10 -10 -5 0 -10 5 -10 10 0 6 5 10 10 10 6 0 10 -4
10 -10z m110 -730 c0 -5 -2 -10 -4 -10 -3 0 -8 5 -11 10 -3 6 -1 10 4 10 6 0
11 -4 11 -10z m-223 -742 c-3 -8 -6 -5 -6 6 -1 11 2 17 5 13 3 -3 4 -12 1 -19z
m20 -134 c-3 -3 -12 -4 -19 -1 -8 3 -5 6 6 6 11 1 17 -2 13 -5z m-2415 -316
c-7 -7 -12 -8 -12 -2 0 14 12 26 19 19 2 -3 -1 -11 -7 -17z m-532 -508 c0 -5
-4 -10 -10 -10 -5 0 -10 5 -10 10 0 6 5 10 10 10 6 0 10 -4 10 -10z m0 -51 c0
-13 -6 -19 -16 -17 -10 2 -19 -3 -21 -10 -3 -7 1 -11 8 -10 8 2 15 -7 17 -19
4 -24 3 -24 -67 -28 -26 -2 -29 1 -29 27 1 23 5 27 20 22 12 -3 20 1 24 13 16
50 27 62 45 52 11 -5 19 -19 19 -30z m480 -179 c0 -5 -2 -10 -4 -10 -3 0 -8 5
-11 10 -3 6 -1 10 4 10 6 0 11 -4 11 -10z m-5 -51 c5 9 11 6 19 -11 9 -18 9
-29 -2 -52 -13 -24 -16 -26 -24 -12 -5 9 -15 16 -22 16 -17 0 -31 33 -17 38 6
2 11 13 11 25 0 20 1 20 13 2 11 -13 16 -15 22 -6z m773 -54 c-3 -3 -9 2 -12
12 -6 14 -5 15 5 6 7 -7 10 -15 7 -18z m-1208 -37 c46 -16 66 -38 73 -84 4
-21 11 -40 17 -42 5 -2 10 -11 10 -21 0 -9 7 -26 15 -38 11 -16 13 -28 5 -47
-5 -15 -6 -35 -1 -48 5 -13 9 -27 11 -33 1 -5 7 -17 14 -25 7 -8 17 -24 21
-35 7 -19 9 -18 19 8 17 45 42 31 38 -22 -2 -24 -8 -55 -13 -68 -5 -13 -9 -42
-9 -64 0 -46 -14 -79 -34 -79 -20 0 -22 14 -24 114 -1 72 -5 91 -19 102 -25
18 -41 17 -39 -2 1 -11 -8 -18 -24 -19 -29 -2 -50 16 -50 44 0 12 -4 21 -8 21
-5 0 -8 17 -8 38 1 20 -2 40 -7 43 -4 3 -9 38 -9 78 -1 40 -4 74 -8 76 -12 7
-11 85 1 85 8 0 8 4 -1 15 -15 18 -12 18 30 3z m1260 -12 c0 -3 -4 -8 -10 -11
-5 -3 -10 -1 -10 4 0 6 5 11 10 11 6 0 10 -2 10 -4z m-660 -48 c0 -6 -7 -5
-15 2 -8 7 -15 17 -15 22 0 6 7 5 15 -2 8 -7 15 -17 15 -22z m93 6 c-12 -8
-21 -9 -28 -3 -12 12 12 29 32 22 11 -4 10 -8 -4 -19z m-288 -33 c3 -5 1 -12
-5 -16 -5 -3 -10 1 -10 9 0 18 6 21 15 7z m340 -19 c-3 -3 -11 0 -18 7 -9 10
-8 11 6 5 10 -3 15 -9 12 -12z m372 -32 c-2 -23 -10 -17 -12 10 -1 10 2 17 6
14 4 -2 7 -13 6 -24z m313 -15 c0 -8 -4 -15 -9 -15 -13 0 -22 16 -14 24 11 11
23 6 23 -9z m60 -20 c-7 -8 -16 -12 -21 -9 -13 8 -1 24 18 24 13 0 13 -3 3
-15z m-870 -40 c0 -15 -26 -32 -36 -23 -2 3 -2 13 2 22 8 20 34 21 34 1z m-54
-21 c-5 -13 6 -18 27 -15 14 2 7 -47 -9 -63 -8 -9 -12 -16 -7 -16 5 0 9 -9 10
-20 1 -12 -4 -20 -13 -20 -10 0 -13 -6 -10 -17 3 -10 2 -24 -3 -32 -8 -12 -12
-12 -26 3 -10 9 -23 15 -29 13 -14 -6 -13 18 5 101 7 34 17 62 21 62 4 0 8 7
8 15 0 9 6 12 16 8 8 -3 13 -12 10 -19z m837 -21 c-3 -7 -6 -13 -8 -13 -2 0
-5 6 -8 13 -3 8 1 14 8 14 7 0 11 -6 8 -14z m1837 7 c0 -5 -4 -10 -10 -10 -5
0 -10 5 -10 10 0 6 5 10 10 10 6 0 10 -4 10 -10z m-1870 -20 c0 12 3 11 11 -3
6 -10 8 -21 5 -24 -3 -4 -6 -1 -6 5 0 6 -7 9 -15 6 -11 -5 -15 0 -14 17 0 23
1 23 9 4 6 -14 9 -15 10 -5z m1804 -5 c-4 -8 -10 -15 -15 -15 -4 0 -6 7 -3 15
4 8 10 15 15 15 4 0 6 -7 3 -15z m-1454 -26 c0 -5 -4 -9 -10 -9 -5 0 -10 7
-10 16 0 8 5 12 10 9 6 -3 10 -10 10 -16z m1407 -1 c-3 -8 -6 -5 -6 6 -1 11 2
17 5 13 3 -3 4 -12 1 -19z m-2183 -23 c3 -9 0 -15 -9 -15 -8 0 -15 7 -15 15 0
8 4 15 9 15 5 0 11 -7 15 -15z m162 -64 c-8 -13 -36 -15 -36 -3 0 4 5 13 12
20 14 14 34 0 24 -17z m39 -4 c-1 -13 -5 -29 -10 -37 -6 -10 -10 -8 -17 10 -6
17 -4 26 9 36 10 7 18 14 18 14 1 0 0 -10 0 -23z m-623 -63 c4 -56 -6 -77 -26
-51 -10 13 -15 15 -18 5 -3 -7 -7 -1 -10 15 -4 21 -2 25 7 17 9 -7 16 -6 25 5
10 12 10 15 -3 15 -8 0 -17 6 -20 14 -5 13 4 19 34 25 4 0 9 -20 11 -45z m664
15 c3 -6 -1 -18 -10 -27 -15 -15 -16 -14 -16 11 0 27 13 36 26 16z m44 -38 c0
-6 -4 -13 -10 -16 -5 -3 -10 1 -10 9 0 9 5 16 10 16 6 0 10 -4 10 -9z m-662
-59 c3 -9 -2 -13 -14 -10 -9 1 -19 9 -22 16 -3 9 2 13 14 10 9 -1 19 -9 22
-16z m-8 -62 c0 -6 11 -8 25 -4 21 5 25 3 25 -15 0 -18 -3 -20 -19 -11 -27 14
-31 13 -31 -7 0 -24 -13 -7 -17 22 -2 14 1 25 7 25 5 0 10 -5 10 -10z m-410
-30 c0 -11 -4 -20 -10 -20 -5 0 -10 9 -10 20 0 11 5 20 10 20 6 0 10 -9 10
-20z m570 -320 c0 -5 -4 -10 -10 -10 -5 0 -10 5 -10 10 0 6 5 10 10 10 6 0 10
-4 10 -10z"/>
<path d="M3316 8041 c-4 -7 -5 -15 -2 -18 9 -9 19 4 14 18 -4 11 -6 11 -12 0z"/>
<path d="M2846 7535 c-3 -8 -1 -15 4 -15 6 0 10 7 10 15 0 8 -2 15 -4 15 -2 0
-6 -7 -10 -15z"/>
<path d="M2765 7139 c-4 -6 -5 -12 -2 -15 2 -3 7 2 10 11 7 17 1 20 -8 4z"/>
<path d="M5410 6815 c0 -8 4 -15 10 -15 5 0 7 7 4 15 -4 8 -8 15 -10 15 -2 0
-4 -7 -4 -15z"/>
<path d="M5350 6801 c0 -6 4 -13 10 -16 6 -3 7 1 4 9 -7 18 -14 21 -14 7z"/>
<path d="M5320 6775 c0 -8 2 -15 4 -15 2 0 6 7 10 15 3 8 1 15 -4 15 -6 0 -10
-7 -10 -15z"/>
<path d="M5258 6645 c-8 -8 2 -45 13 -45 10 0 10 8 0 33 -3 10 -9 15 -13 12z"/>
<path d="M5300 6632 c0 -4 9 -13 20 -20 22 -13 27 -3 8 16 -14 14 -28 16 -28
4z"/>
<path d="M5291 6598 c-1 -11 -8 -16 -20 -13 -11 2 -22 -3 -25 -10 -3 -10 2
-12 22 -9 33 6 35 8 29 31 -4 15 -5 16 -6 1z"/>
<path d="M2170 709 c0 -5 5 -7 10 -4 6 3 10 8 10 11 0 2 -4 4 -10 4 -5 0 -10
-5 -10 -11z"/>
<path d="M2606 696 c-17 -8 -24 -16 -18 -20 13 -8 52 10 52 24 0 6 -1 10 -2 9
-2 0 -16 -6 -32 -13z"/>
<path d="M4885 7839 c-4 -5 -4 -13 -1 -16 3 -4 6 0 6 8 0 11 2 11 10 -1 6 -9
10 -10 10 -3 0 17 -17 25 -25 12z"/>
<path d="M5025 7600 c-3 -5 -1 -10 4 -10 6 0 11 5 11 10 0 6 -2 10 -4 10 -3 0
-8 -4 -11 -10z"/>
<path d="M2046 7494 c-5 -14 -4 -15 9 -4 17 14 19 20 6 20 -5 0 -12 -7 -15
-16z"/>
<path d="M5000 7499 c0 -5 5 -7 10 -4 6 3 10 8 10 11 0 2 -4 4 -10 4 -5 0 -10
-5 -10 -11z"/>
<path d="M3155 7387 c-11 -7 -24 -18 -28 -24 -4 -7 -14 -13 -21 -13 -15 0 -56
-42 -56 -57 0 -7 -9 -15 -20 -18 -11 -4 -18 -10 -15 -15 3 -5 1 -11 -4 -14 -5
-4 -12 -2 -16 3 -9 15 -37 0 -31 -16 3 -8 2 -12 -3 -9 -10 7 -19 -3 -54 -66
-20 -35 -24 -49 -15 -54 7 -4 10 -4 6 1 -4 4 5 20 20 35 16 14 26 32 24 38 -2
7 6 12 17 12 12 0 20 3 20 8 -1 4 -1 18 0 32 2 23 3 23 15 8 11 -15 16 -16 31
-4 10 7 15 18 11 24 -5 8 -1 10 11 6 10 -3 24 -8 32 -10 11 -4 11 -8 -3 -22
-23 -27 -21 -46 4 -30 12 8 15 15 8 19 -6 4 -4 11 8 18 12 6 14 11 5 11 -8 0
-4 8 10 20 13 10 20 19 16 20 -5 0 -15 -7 -24 -15 -19 -20 -24 -16 -16 13 3
12 12 22 19 22 8 0 14 7 14 16 0 8 4 13 9 10 5 -3 15 2 22 11 10 12 10 14 2 9
-7 -4 -13 -2 -13 3 0 6 6 11 14 11 8 0 16 7 20 15 6 17 7 17 -19 2z"/>
<path d="M5035 7344 c0 -13 3 -24 6 -24 12 0 32 30 25 37 -15 16 -31 9 -31
-13z"/>
<path d="M3000 7187 c0 -7 5 -18 12 -25 8 -8 8 -15 -2 -29 -13 -17 -13 -17 4
-2 14 13 16 21 7 37 -6 10 -7 22 -4 26 3 3 1 6 -5 6 -7 0 -12 -6 -12 -13z"/>
<path d="M3055 7160 c-3 -5 -1 -10 4 -10 6 0 11 5 11 10 0 6 -2 10 -4 10 -3 0
-8 -4 -11 -10z"/>
<path d="M2851 7065 c-18 -18 -21 -27 -13 -41 9 -15 12 -12 31 24 24 47 18 53
-18 17z m2 -20 c-3 -9 -8 -14 -10 -11 -3 3 -2 9 2 15 9 16 15 13 8 -4z"/>
<path d="M2075 7040 c-3 -5 -1 -10 4 -10 6 0 11 5 11 10 0 6 -2 10 -4 10 -3 0
-8 -4 -11 -10z"/>
<path d="M4771 6744 c0 -11 3 -14 6 -6 3 7 2 16 -1 19 -3 4 -6 -2 -5 -13z"/>
<path d="M4846 6635 c4 -8 8 -15 10 -15 2 0 4 7 4 15 0 8 -4 15 -10 15 -5 0
-7 -7 -4 -15z"/>
<path d="M4820 6631 c0 -5 5 -13 10 -16 6 -3 10 -2 10 4 0 5 -4 13 -10 16 -5
3 -10 2 -10 -4z"/>
<path d="M3929 6549 c-19 -16 -20 -19 -6 -15 10 3 23 6 28 6 6 0 8 4 5 9 -4 5
0 12 6 14 8 4 9 6 2 6 -7 1 -22 -8 -35 -20z"/>
<path d="M3990 6535 c-19 -14 -36 -22 -39 -17 -9 11 -71 12 -71 1 0 -6 6 -7
13 -3 8 5 8 2 -2 -9 -7 -9 -18 -17 -23 -17 -17 0 -58 -37 -50 -45 4 -4 -4 -5
-18 -3 -14 3 -36 2 -50 -2 -20 -6 -15 -8 25 -10 36 -1 44 -4 30 -9 -11 -5 -26
-6 -32 -4 -7 3 -13 0 -13 -7 0 -7 -10 -9 -27 -6 -21 5 -31 2 -40 -13 -11 -18
-10 -19 5 -14 14 6 15 4 5 -8 -10 -12 -9 -15 5 -17 31 -3 47 -8 60 -16 12 -7
12 -4 1 15 -7 13 -14 19 -16 13 -2 -7 -13 -10 -24 -7 -18 5 -18 7 7 19 31 16
58 18 49 4 -3 -5 3 -10 15 -10 12 0 19 -4 16 -9 -5 -7 67 -26 86 -23 4 1 5 -4
2 -12 -3 -8 -15 -12 -27 -10 -12 2 -16 2 -9 -2 22 -10 13 -21 -14 -16 -16 3
-25 1 -21 -5 3 -5 -26 -25 -66 -43 -66 -31 -110 -60 -90 -60 4 0 1 -6 -8 -13
-16 -12 -33 -46 -31 -59 1 -5 -3 -8 -10 -8 -6 0 -9 -3 -5 -6 3 -3 2 -16 -3
-28 -5 -14 -3 -28 5 -40 13 -17 15 -17 49 9 19 14 51 47 72 71 57 71 127 108
222 118 35 4 42 1 42 -14 0 -9 -7 -23 -15 -30 -8 -7 -15 -9 -15 -5 0 4 -15 -4
-34 -19 -19 -14 -39 -26 -44 -26 -5 0 -32 -23 -61 -50 -28 -28 -56 -48 -61
-45 -9 6 -45 -27 -61 -57 -7 -13 -6 -18 2 -18 17 0 99 49 99 60 0 12 100 72
127 75 18 2 23 -3 23 -22 0 -13 -4 -22 -8 -19 -5 3 -9 -1 -9 -9 0 -8 5 -15 10
-15 5 0 5 -6 -2 -13 -16 -20 38 -100 78 -116 17 -8 28 -17 25 -22 -3 -5 -9 -7
-14 -4 -13 8 11 -57 26 -72 17 -17 37 -17 31 0 -3 8 1 14 9 14 8 0 14 -9 14
-19 0 -11 -4 -17 -9 -14 -5 3 -14 -1 -21 -9 -13 -16 -12 -16 33 -18 24 -1 47
-19 47 -38 0 -6 -12 -23 -27 -37 -16 -13 -22 -21 -15 -18 6 4 19 1 27 -7 11
-12 25 -13 66 -5 28 5 57 7 65 4 8 -3 14 -2 14 2 0 13 69 7 82 -7 7 -8 8 -11
2 -8 -7 4 -15 0 -18 -9 -10 -25 -8 -25 18 -3 14 12 22 28 19 35 -3 8 0 14 7
14 6 0 8 -5 5 -10 -10 -16 46 -1 68 18 9 8 17 10 17 5 0 -6 -7 -14 -16 -17 -9
-4 -14 -9 -10 -13 3 -3 -1 -14 -9 -23 -13 -14 -13 -17 0 -17 8 0 13 3 11 6 -6
9 21 31 28 24 12 -13 56 40 51 61 -3 12 -2 15 1 9 3 -7 12 -13 20 -13 9 0 12
-4 9 -10 -3 -5 -4 -10 0 -10 5 0 27 46 29 62 1 3 4 10 9 14 13 13 8 29 -14 42
-15 10 -19 10 -14 1 5 -8 4 -10 -3 -5 -13 8 -12 33 2 55 6 9 5 12 -1 8 -5 -3
-10 0 -10 8 0 8 4 12 8 10 12 -8 20 26 13 62 -6 34 -6 35 15 23 38 -20 49 -7
43 49 -3 30 -1 51 5 51 24 0 -3 53 -47 92 -76 68 -101 88 -113 88 -7 0 -6 4 3
10 12 8 12 10 -5 10 -11 0 -29 7 -39 15 -19 15 -19 15 2 15 12 0 22 5 22 11 0
7 16 8 45 3 27 -4 45 -2 45 3 0 6 10 10 23 11 12 0 32 3 45 7 17 6 20 10 11
21 -15 18 -1 37 24 30 11 -3 16 -1 11 4 -5 5 -22 10 -38 12 -16 2 -31 10 -33
18 -4 13 -3 13 6 0 7 -9 11 -10 11 -3 0 6 -5 15 -10 18 -6 4 -8 9 -6 13 2 4
-10 7 -27 7 -18 -1 -51 7 -75 17 -51 21 -66 23 -56 6 4 -7 -1 -6 -12 3 -19 17
-32 17 -74 4 -15 -5 -20 -3 -16 3 4 7 -4 8 -25 2 -23 -7 -28 -6 -21 3 8 9 4
12 -13 12 -13 0 -21 -3 -18 -7 2 -5 -3 -8 -12 -8 -10 0 -13 5 -9 13 6 9 5 9
-7 0 -8 -6 -25 -11 -39 -11 -14 -1 -45 -3 -69 -6 -36 -5 -46 -2 -60 15 -15 19
-18 20 -30 5 -7 -9 -18 -16 -23 -16 -6 0 -6 6 1 14 15 18 -2 17 -36 -2 -30
-17 -41 -15 -17 3 10 8 15 15 10 15 -6 0 -1 7 10 15 10 8 16 15 13 15 -3 0
-20 -11 -39 -25z m110 -30 c0 -2 -10 -9 -22 -15 -22 -11 -22 -10 -4 4 21 17
26 19 26 11z m-360 -121 c0 -2 -7 -4 -15 -4 -8 0 -15 4 -15 10 0 5 7 7 15 4 8
-4 15 -8 15 -10z m300 -154 c0 -5 -2 -10 -4 -10 -3 0 -8 5 -11 10 -3 6 -1 10
4 10 6 0 11 -4 11 -10z m-22 -119 c8 -4 13 -12 13 -17 -1 -5 5 -9 12 -9 6 0
13 -12 15 -27 2 -16 -1 -28 -7 -28 -6 0 -11 7 -11 15 0 17 -16 20 -25 5 -14
-23 -26 -8 -23 30 2 42 5 45 26 31z m-246 -93 c-7 -7 -12 -8 -12 -2 0 14 12
26 19 19 2 -3 -1 -11 -7 -17z m788 -24 c0 -2 -7 -4 -15 -4 -8 0 -15 4 -15 10
0 5 7 7 15 4 8 -4 15 -8 15 -10z m-279 -37 c-10 -9 -11 -8 -5 6 3 10 9 15 12
12 3 -3 0 -11 -7 -18z m-171 -87 c8 -5 11 -10 5 -10 -5 0 -17 5 -25 10 -8 5
-10 10 -5 10 6 0 17 -5 25 -10z m-30 -21 c0 -6 -4 -7 -10 -4 -5 3 -10 11 -10
16 0 6 5 7 10 4 6 -3 10 -11 10 -16z m527 -62 c0 -8 -6 -14 -14 -14 -9 0 -10
4 -2 14 6 7 12 13 14 13 1 0 2 -6 2 -13z m-410 -59 c-3 -8 -6 -5 -6 6 -1 11 2
17 5 13 3 -3 4 -12 1 -19z"/>
<path d="M3820 6499 c0 -5 -4 -7 -10 -4 -5 3 -10 1 -10 -5 0 -12 30 -6 60 11
11 6 8 8 -12 9 -16 0 -28 -5 -28 -11z"/>
<path d="M4528 6493 c6 -2 18 -2 25 0 6 3 1 5 -13 5 -14 0 -19 -2 -12 -5z"/>
<path d="M3755 6470 c3 -6 -5 -10 -19 -10 -14 0 -28 -5 -32 -11 -4 -7 0 -9 12
-6 11 3 34 9 52 12 35 7 35 17 1 22 -12 2 -18 -1 -14 -7z"/>
<path d="M4951 6466 c-21 -12 -22 -14 -5 -20 16 -6 33 7 34 27 0 9 0 9 -29 -7z"/>
<path d="M3668 6423 c7 -3 16 -2 19 1 4 3 -2 6 -13 5 -11 0 -14 -3 -6 -6z"/>
<path d="M4850 6419 c0 -5 5 -7 10 -4 6 3 10 8 10 11 0 2 -4 4 -10 4 -5 0 -10
-5 -10 -11z"/>
<path d="M4687 6369 c7 -7 15 -10 18 -7 3 3 -2 9 -12 12 -14 6 -15 5 -6 -5z"/>
<path d="M2910 6040 c0 -5 5 -10 10 -10 6 0 10 5 10 10 0 6 -4 10 -10 10 -5 0
-10 -4 -10 -10z"/>
<path d="M2914 5983 c-3 -10 -10 -26 -15 -35 -12 -24 -11 -37 2 -15 6 9 13 16
17 13 4 -2 7 9 7 25 0 33 -3 37 -11 12z"/>
<path d="M2665 5873 c-8 -33 -24 -55 -35 -48 -14 9 -70 -82 -70 -115 0 -8 -7
-35 -16 -59 -17 -50 -74 -123 -74 -95 0 13 -5 11 -25 -10 -14 -15 -22 -33 -18
-42 3 -8 0 -26 -8 -40 -34 -64 59 -174 146 -174 24 0 46 4 50 9 3 5 -6 26 -20
47 -20 30 -24 44 -19 73 8 43 21 71 34 71 6 0 10 9 10 21 0 11 11 35 25 54 14
18 25 37 24 41 -4 22 2 34 16 34 10 0 15 8 14 23 -4 42 1 82 9 70 12 -19 38 8
46 49 4 25 3 39 -6 44 -20 13 -38 13 -38 1 0 -5 -3 -7 -6 -4 -4 4 -2 13 4 20
9 10 7 19 -9 35 -25 28 -25 28 -34 -5z"/>
<path d="M2861 5864 c0 -11 3 -14 6 -6 3 7 2 16 -1 19 -3 4 -6 -2 -5 -13z"/>
<path d="M2788 5815 c2 -14 6 -25 8 -25 2 0 4 11 4 25 0 14 -4 25 -9 25 -4 0
-6 -11 -3 -25z"/>
<path d="M2891 5544 c0 -11 3 -14 6 -6 3 7 2 16 -1 19 -3 4 -6 -2 -5 -13z"/>
<path d="M2911 5544 c0 -11 3 -14 6 -6 3 7 2 16 -1 19 -3 4 -6 -2 -5 -13z"/>
<path d="M2760 5230 c0 -5 5 -10 11 -10 5 0 7 5 4 10 -3 6 -8 10 -11 10 -2 0
-4 -4 -4 -10z"/>
<path d="M4803 4828 c-20 -7 -33 -18 -33 -28 0 -15 12 -16 103 -14 162 3 153
2 137 18 -37 34 -139 46 -207 24z"/>
<path d="M4265 4320 c-3 -5 -1 -10 4 -10 6 0 11 5 11 10 0 6 -2 10 -4 10 -3 0
-8 -4 -11 -10z"/>
<path d="M4910 2311 c0 -6 4 -13 10 -16 6 -3 7 1 4 9 -7 18 -14 21 -14 7z"/>
<path d="M2340 1989 c-9 -16 -14 -18 -26 -8 -17 14 -19 3 -2 -15 17 -18 58 0
58 26 0 24 -17 23 -30 -3z"/>
<path d="M2270 1950 c0 -5 5 -10 11 -10 5 0 7 5 4 10 -3 6 -8 10 -11 10 -2 0
-4 -4 -4 -10z"/>
<path d="M2445 1800 c3 -5 8 -10 11 -10 2 0 4 5 4 10 0 6 -5 10 -11 10 -5 0
-7 -4 -4 -10z"/>
<path d="M2445 1750 c3 -5 8 -10 11 -10 2 0 4 5 4 10 0 6 -5 10 -11 10 -5 0
-7 -4 -4 -10z"/>
<path d="M2450 1710 c0 -5 5 -10 11 -10 6 0 9 -7 6 -14 -4 -10 -1 -13 8 -9 11
4 12 10 4 24 -10 20 -29 26 -29 9z"/>
<path d="M2516 1513 c-20 -21 30 -133 60 -133 12 0 12 4 2 23 -7 12 -15 24
-18 27 -6 6 -11 27 -13 51 -1 19 -22 40 -31 32z"/>
<path d="M2790 1365 c0 -8 7 -15 16 -15 14 0 14 3 4 15 -7 8 -14 15 -16 15 -2
0 -4 -7 -4 -15z"/>
<path d="M2940 1161 c0 -6 4 -13 10 -16 6 -3 7 1 4 9 -7 18 -14 21 -14 7z"/>
<path d="M2980 1145 c7 -9 15 -13 17 -11 7 7 -7 26 -19 26 -6 0 -6 -6 2 -15z"/>
<path d="M2786 1115 c4 -8 11 -15 16 -15 6 0 5 6 -2 15 -7 8 -14 15 -16 15 -2
0 -1 -7 2 -15z"/>
<path d="M3222 1000 c13 -20 58 -28 58 -10 0 5 -6 7 -14 4 -7 -3 -20 2 -29 10
-22 22 -30 20 -15 -4z"/>
<path d="M3117 963 c-10 -9 -9 -23 1 -23 5 0 9 7 9 15 0 17 -1 18 -10 8z"/>
<path d="M3310 942 c0 -5 7 -13 16 -16 10 -4 14 -1 12 6 -5 15 -28 23 -28 10z"/>
<path d="M3303 893 c0 -29 1 -31 13 -15 15 20 18 36 5 28 -5 -4 -11 0 -14 6
-3 7 -5 -2 -4 -19z"/>
<path d="M3368 863 c7 -3 16 -2 19 1 4 3 -2 6 -13 5 -11 0 -14 -3 -6 -6z"/>
<path d="M3335 850 c-3 -5 1 -10 10 -10 9 0 13 5 10 10 -3 6 -8 10 -10 10 -2
0 -7 -4 -10 -10z"/>
<path d="M4510 694 c0 -8 5 -12 10 -9 6 4 8 11 5 16 -9 14 -15 11 -15 -7z"/>
<path d="M2480 513 c0 -5 5 -15 10 -23 8 -12 10 -11 10 8 0 12 -4 22 -10 22
-5 0 -10 -3 -10 -7z"/>
<path d="M2445 490 c-3 -5 -2 -10 4 -10 5 0 13 5 16 10 3 6 2 10 -4 10 -5 0
-13 -4 -16 -10z"/>
<path d="M2436 435 c-14 -11 -17 -18 -9 -26 7 -7 15 -2 27 15 18 29 11 33 -18
11z"/>
<path d="M2355 400 c27 -12 35 -12 35 0 0 6 -12 10 -27 9 -25 0 -26 -1 -8 -9z"/>
<path d="M2371 274 c0 -11 3 -14 6 -6 3 7 2 16 -1 19 -3 4 -6 -2 -5 -13z"/>
<path d="M2330 99 c0 -5 5 -7 10 -4 6 3 10 8 10 11 0 2 -4 4 -10 4 -5 0 -10
-5 -10 -11z"/>
<path d="M2305 90 c-3 -5 -1 -10 4 -10 6 0 11 5 11 10 0 6 -2 10 -4 10 -3 0
-8 -4 -11 -10z"/>
<path d="M2300 60 c0 -5 5 -10 10 -10 6 0 10 5 10 10 0 6 -4 10 -10 10 -5 0
-10 -4 -10 -10z"/>
</g>
</svg>
